<svg xmlns="http://www.w3.org/2000/svg" xmlns:xlink="http://www.w3.org/1999/xlink" xmlns:lucid="lucid" width="1260" height="1300"><g transform="translate(-460 -280)" lucid:page-tab-id="0_0"><path d="M0 0h2320v1675.3H0z" fill="#fff"/><path d="M480 453.47a8 8 0 0 1 8-8h1204a8 8 0 0 1 8 8V1252a8 8 0 0 1-8 8H488a8 8 0 0 1-8-8z" stroke="#282c33" stroke-width="3" fill-opacity="0"/><path d="M1050 714.53c16.57 0 30 13.43 30 30V1070c0 16.57-13.43 30-30 30H530c-16.57 0-30-13.43-30-30V744.53c0-16.57 13.43-30 30-30zM1650 714.53c16.57 0 30 13.43 30 30V1070c0 16.57-13.43 30-30 30h-500c-16.57 0-30-13.43-30-30V744.53c0-16.57 13.43-30 30-30z" stroke="#333" stroke-width="2" fill-opacity="0"/><path d="M1174 300c30.93 0 56 17.9 56 40s-25.07 40-56 40h-168c-30.93 0-56-17.9-56-40s25.07-40 56-40z" stroke="#000" stroke-opacity="0" fill="#282c33"/><use xlink:href="#a" transform="matrix(1,0,0,1,955.0000000000002,305) translate(30.303703703703718 25.133333333333333)"/><use xlink:href="#b" transform="matrix(1,0,0,1,955.0000000000002,305) translate(89.0925925925926 25.133333333333333)"/><use xlink:href="#c" transform="matrix(1,0,0,1,955.0000000000002,305) translate(178.09814814814814 25.133333333333333)"/><use xlink:href="#d" transform="matrix(1,0,0,1,955.0000000000002,305) translate(204.06666666666666 25.133333333333333)"/><use xlink:href="#e" transform="matrix(1,0,0,1,955.0000000000002,305) translate(51.57870370370374 54.733333333333334)"/><path d="M1460 457.02a8 8 0 0 1 8-8h224a8 8 0 0 1 8 8v58.53a8 8 0 0 1-8 8h-224a8 8 0 0 1-8-8z" stroke="#000" stroke-opacity="0" fill="#fff" fill-opacity="0"/><use xlink:href="#f" transform="matrix(1,0,0,1,1465,454.0151872169938) translate(13.69537037037037 22.633333333333333)"/><use xlink:href="#g" transform="matrix(1,0,0,1,1465,454.0151872169938) translate(23.253703703703735 52.233333333333334)"/><use xlink:href="#h" transform="matrix(1,0,0,1,1465,454.0151872169938) translate(109.58703703703705 52.233333333333334)"/><path d="M1150 510c0 27.6-22.4 50-50 50s-50-22.4-50-50 22.4-50 50-50 50 22.4 50 50z" stroke="#333" fill-opacity="0"/><use xlink:href="#i" transform="matrix(1,0,0,1,1054.9999999999998,465) translate(11.524999999999999 48.6)"/><path d="M1000 603.5a8 8 0 0 1 8-8h184a8 8 0 0 1 8 8v58.54a8 8 0 0 1-8 8h-184a8 8 0 0 1-8-8z" stroke="#333" fill="#fff"/><use xlink:href="#j" transform="matrix(1,0,0,1,1011.9999999999997,607.5075936084968) translate(18.429938271604968 29.544444444444444)"/><path d="M860 828.1a8 8 0 0 1 8-8h174a8 8 0 0 1 8 8v72.8a8 8 0 0 1-8 8H868a8 8 0 0 1-8-8z" stroke="#333" fill="#fff"/><use xlink:href="#k" transform="matrix(1,0,0,1,872,832.1075936084968) translate(18.05000000000001 14.500000000000004)"/><use xlink:href="#l" transform="matrix(1,0,0,1,872,832.1075936084968) translate(74 14.500000000000004)"/><use xlink:href="#m" transform="matrix(1,0,0,1,872,832.1075936084968) translate(126.99999999999999 14.500000000000004)"/><use xlink:href="#n" transform="matrix(1,0,0,1,872,832.1075936084968) translate(1.1250000000000142 36.099999999999994)"/><use xlink:href="#o" transform="matrix(1,0,0,1,872,832.1075936084968) translate(100.97500000000001 36.099999999999994)"/><use xlink:href="#p" transform="matrix(1,0,0,1,872,832.1075936084968) translate(61.57500000000001 57.69999999999999)"/><path d="M938.6 940a10.67 10.67 0 0 1 12.8 0l67.2 50.4a6 6 0 0 1 0 9.6l-67.2 50.4a10.67 10.67 0 0 1-12.8 0l-67.2-50.4a6 6 0 0 1 0-9.6z" stroke="#333" fill="#fff"/><use xlink:href="#q" transform="matrix(1,0,0,1,870,940.2) translate(18.074999999999996 47.8)"/><use xlink:href="#r" transform="matrix(1,0,0,1,870,940.2) translate(37.074999999999996 47.8)"/><use xlink:href="#s" transform="matrix(1,0,0,1,870,940.2) translate(36.525 69.4)"/><use xlink:href="#t" transform="matrix(1,0,0,1,870,940.2) translate(55.474999999999994 69.4)"/><path d="M520 937.2a8 8 0 0 1 8-8h144a8 8 0 0 1 8 8v116a8 8 0 0 1-8 8H528a8 8 0 0 1-8-8z" stroke="#333" fill="#fff"/><use xlink:href="#u" transform="matrix(1,0,0,1,532,941.2) translate(41.05 14.4)"/><use xlink:href="#v" transform="matrix(1,0,0,1,532,941.2) translate(20.574999999999996 36)"/><use xlink:href="#w" transform="matrix(1,0,0,1,532,941.2) translate(24.074999999999996 57.6)"/><use xlink:href="#x" transform="matrix(1,0,0,1,532,941.2) translate(97.975 57.6)"/><use xlink:href="#y" transform="matrix(1,0,0,1,532,941.2) translate(18.525 79.20000000000002)"/><use xlink:href="#z" transform="matrix(1,0,0,1,532,941.2) translate(47.525 100.80000000000001)"/><path d="M720 548a8 8 0 0 1 8-8h244a8 8 0 0 1 8 8v67.55a8 8 0 0 1-8 8H728a8 8 0 0 1-8-8z" stroke="#000" stroke-opacity="0" fill="#fff" fill-opacity="0"/><use xlink:href="#A" transform="matrix(1,0,0,1,725,545) translate(0 19)"/><use xlink:href="#B" transform="matrix(1,0,0,1,725,545) translate(211.59999999999997 19)"/><use xlink:href="#C" transform="matrix(1,0,0,1,725,545) translate(0 40.6)"/><use xlink:href="#B" transform="matrix(1,0,0,1,725,545) translate(231.59999999999997 40.6)"/><use xlink:href="#D" transform="matrix(1,0,0,1,725,545) translate(0 62.2)"/><path d="M620 770.03c0 27.63-22.4 50.03-50 50.03s-50-22.4-50-50.03c0-27.63 22.4-50.03 50-50.03s50 22.4 50 50.03z" stroke="#333" fill-opacity="0"/><use xlink:href="#E" transform="matrix(1,0,0,1,525,725) translate(9.024999999999999 38.3)"/><use xlink:href="#F" transform="matrix(1,0,0,1,525,725) translate(24.075 59.9)"/><path d="M1229.3 891.77a8 8 0 0 1 8-8h65.4a8 8 0 0 1 8 8v31a8 8 0 0 1-8 8h-65.4a8 8 0 0 1-8-8z" stroke="#333" fill="#fff"/><use xlink:href="#G" transform="matrix(1,0,0,1,1241.2883795474231,895.7716418043306) translate(11.375 15.1)"/><path d="M1090 380.5v47.13" stroke="#333" fill="none"/><path d="M1090.5 380.5h-1v-.5h1z" stroke="#333" stroke-width=".05" fill="#333"/><path d="M1090 442.4l-4.64-14.27h9.28z" stroke="#333" fill="#333"/><path d="M600 1062.15V1178a12 12 0 0 0 12 12h380.12" stroke="#333" fill="none"/><path d="M600.5 1062.16h-1v-.5h1z" stroke="#333" stroke-width=".05" fill="#333"/><path d="M1006.88 1190l-14.26 4.64v-9.28z" stroke="#333" fill="#333"/><path d="M962.5 1328a8 8 0 0 1 8-8h239a8 8 0 0 1 8 8v81.53a8 8 0 0 1-8 8h-239a8 8 0 0 1-8-8z" stroke="#333" fill="#fff"/><use xlink:href="#H" transform="matrix(1,0,0,1,974.4999999999999,1332) translate(3.625 19)"/><use xlink:href="#I" transform="matrix(1,0,0,1,974.4999999999999,1332) translate(48.525 19)"/><use xlink:href="#J" transform="matrix(1,0,0,1,974.4999999999999,1332) translate(134.475 19)"/><use xlink:href="#K" transform="matrix(1,0,0,1,974.4999999999999,1332) translate(180.425 19)"/><use xlink:href="#L" transform="matrix(1,0,0,1,974.4999999999999,1332) translate(5.525000000000006 40.6)"/><use xlink:href="#M" transform="matrix(1,0,0,1,974.4999999999999,1332) translate(59.525000000000006 40.6)"/><use xlink:href="#N" transform="matrix(1,0,0,1,974.4999999999999,1332) translate(84.525 40.6)"/><use xlink:href="#O" transform="matrix(1,0,0,1,974.4999999999999,1332) translate(109.525 40.6)"/><use xlink:href="#P" transform="matrix(1,0,0,1,974.4999999999999,1332) translate(181.475 40.6)"/><use xlink:href="#Q" transform="matrix(1,0,0,1,974.4999999999999,1332) translate(201.475 40.6)"/><use xlink:href="#R" transform="matrix(1,0,0,1,974.4999999999999,1332) translate(43.55 62.2)"/><use xlink:href="#z" transform="matrix(1,0,0,1,974.4999999999999,1332) translate(147.5 62.2)"/><path d="M1090 1418.48v23.64" stroke="#333" fill="none"/><path d="M1090.5 1418.5h-1v-.52h1z" stroke="#333" stroke-width=".05" fill="#333"/><path d="M1090 1456.88l-4.64-14.26h9.28z" stroke="#333" fill="#333"/><path d="M1100 561v17.67" stroke="#333" fill="none"/><path d="M1100 560.5l.5-.02v.53h-1v-.52z" stroke="#333" stroke-width=".05" fill="#333"/><path d="M1100 593.44l-4.64-14.27h9.28z" stroke="#333" fill="#333"/><path d="M621 770.03h87a12 12 0 0 1 12 12v8.26" stroke="#333" fill="none"/><path d="M621 770.53h-.52l.02-.5-.02-.5h.53z" stroke="#333" stroke-width=".05" fill="#333"/><path d="M720 805.06l-4.64-14.27h9.28z" stroke="#333" fill="#333"/><path d="M1170 1190c0 38.66-35.82 70-80 70s-80-31.34-80-70 35.82-70 80-70 80 31.34 80 70z" stroke="#333" stroke-width="3" fill-opacity="0"/><use xlink:href="#S" transform="matrix(1,0,0,1,1015,1125) translate(20.525 57.8)"/><use xlink:href="#T" transform="matrix(1,0,0,1,1015,1125) translate(124.475 57.8)"/><use xlink:href="#U" transform="matrix(1,0,0,1,1015,1125) translate(6.549999999999997 79.4)"/><path d="M1140 1510c0 27.6-22.4 50-50 50s-50-22.4-50-50 22.4-50 50-50 50 22.4 50 50z" stroke="#333" stroke-width="3" fill-opacity="0"/><use xlink:href="#V" transform="matrix(1,0,0,1,1045,1465) translate(4.524999999999999 48.6)"/><path d="M1090 1261.95v41.22" stroke="#333" fill="none"/><path d="M1090.5 1261.96h-1v-.5h1z" stroke="#333" stroke-width=".05" fill="#333"/><path d="M1090 1317.93l-4.64-14.26h9.28z" stroke="#333" fill="#333"/><path d="M713.6 809.3a10.67 10.67 0 0 1 12.8 0l67.2 50.4a6 6 0 0 1 0 9.6l-67.2 50.4a10.67 10.67 0 0 1-12.8 0l-67.2-50.4a6 6 0 0 1 0-9.6z" stroke="#333" fill="#fff"/><use xlink:href="#W" transform="matrix(1,0,0,1,645,809.5075936084968) translate(8.949999999999989 58.6)"/><use xlink:href="#X" transform="matrix(1,0,0,1,645,809.5075936084968) translate(78.14999999999999 58.6)"/><use xlink:href="#Y" transform="matrix(1,0,0,1,645,809.5075936084968) translate(96.1 58.6)"/><path d="M810.55 865H797v-1h13.55zm32.6 0h-9.65v-1h9.66z" stroke="#7ab648" stroke-width=".05" fill="#7ab648"/><path d="M797 865h-.54l.04-.5-.04-.5h.55z" fill="#7ab648"/><path d="M797.04 865.03h-.6l.04-.52-.05-.52h.6zm-.56-1l.05.48-.05.48h.5v-.95z" stroke="#7ab648" stroke-width=".05" fill="#7ab648"/><path d="M857.93 864.5l-14.27 4.64v-9.27z" fill="#7ab648"/><path d="M859.55 864.5l-16.4 5.33v-10.65zm-15.4 3.95l12.16-3.94-12.14-3.94z" stroke="#7ab648" stroke-width=".05" fill="#7ab648"/><use xlink:href="#Z" transform="matrix(1,0,0,1,810.5476362528121,853.7075936084968) translate(0.005000000000000782 14.4)"/><path d="M605.7 866.93l-.46.28-1.37 1.18-1.17 1.37-.95 1.54-.7 1.65-.4 1.74-.15 37.67h-1l.15-37.8.46-1.93.76-1.8 1.03-1.68 1.26-1.5 1.5-1.27 1.03-.64zM643 865h-7.96v-1H643z" stroke="#c92d39" stroke-width=".05" fill="#c92d39"/><path d="M643.5 864.5l.04.5H643v-1h.54z" fill="#c92d39"/><path d="M643.52 864.5l.05.53h-.6v-1.05h.6zm-.5-.47v.95h.5l-.05-.47.05-.47z" stroke="#c92d39" stroke-width=".05" fill="#c92d39"/><path d="M600 927.13l-4.64-14.27h9.28z" fill="#c92d39"/><path d="M600 928.75l-5.32-16.4h10.64zm-3.95-15.4l3.95 12.16 3.95-12.14z" stroke="#c92d39" stroke-width=".05" fill="#c92d39"/><use xlink:href="#aa" transform="matrix(1,0,0,1,605.6909924235101,853.7075936084968) translate(0.005000000000000782 14.4)"/><path d="M955 909.86v9.7a3.8 3.8 0 0 1-3.8 3.8h-3.82" stroke="#333" fill="none"/><path d="M955.5 909.87h-1v-.5h1z" stroke="#333" stroke-width=".05" fill="#333"/><path d="M945.27 935.77l-2.18-14.84 9.13 1.55z" stroke="#333" fill="#333"/><path d="M1031.7 995.7h-9.7v-1h9.7zm19.88-226.05l1.92.46 1.82.76 1.67 1.03 1.48 1.26 1.27 1.5 1.03 1.66.75 1.82.46 1.9.14 1.94-.15 203.16-.47 1.92-.75 1.82-1.03 1.67-1.27 1.5-1.5 1.26-1.66 1.04-.67.28v-1.1l.2-.07 1.55-.95 1.37-1.17 1.17-1.37.95-1.54.68-1.67.4-1.73.16-203-.14-1.82-.42-1.75-.7-1.67-.94-1.54-1.17-1.37-1.37-1.17-1.54-.95-1.67-.7-1.74-.4-319.44-.15-1.82.14-1.75.42-1.67.7-1.54.94-1.37 1.17-1.17 1.37-.95 1.54-.7 1.67-.4 1.74-.15 10.1-1-.02.15-10.22.46-1.92.76-1.82 1.03-1.67 1.26-1.5 1.5-1.26 1.66-1.04 1.82-.75 1.9-.45 1.94-.15z" stroke="#c92d39" stroke-width=".05" fill="#c92d39"/><path d="M1022 995.7h-.54l.04-.5-.04-.5h.55z" fill="#c92d39"/><path d="M1022.04 995.73h-.6l.04-.53-.05-.53h.6zm-.56-1l.05.47-.05.47h.5v-.94z" stroke="#c92d39" stroke-width=".05" fill="#c92d39"/><path d="M720 805.06l-4.64-14.27h9.28z" fill="#c92d39"/><path d="M720 806.67l-5.32-16.38h10.64zm-3.95-15.38l3.95 12.14 3.95-12.15z" stroke="#c92d39" stroke-width=".05" fill="#c92d39"/><use xlink:href="#Z" transform="matrix(1,0,0,1,1031.6955232680916,984.4000000000001) translate(0.005000000000000782 14.4)"/><path d="M827.14 995.7h-130.3v-1h130.3zm40.86 0h-11.5v-1H868z" stroke="#7ab648" stroke-width=".05" fill="#7ab648"/><path d="M868.5 995.2l.04.5H868v-1h.54z" fill="#7ab648"/><path d="M868.52 995.2l.05.52h-.6v-1.05h.6zm-.5-.48v.95h.5l-.05-.47.05-.48z" stroke="#7ab648" stroke-width=".05" fill="#7ab648"/><path d="M696.34 999.84l-14.27-4.64 14.27-4.64z" fill="#7ab648"/><path d="M696.84 1000.52l-16.4-5.32 16.4-5.32zm-13.15-5.32l12.14 3.95v-7.9z" stroke="#7ab648" stroke-width=".05" fill="#7ab648"/><use xlink:href="#aa" transform="matrix(1,0,0,1,827.1381688747833,984.4000000000001) translate(0.005000000000000782 14.4)"/><path d="M1460 870.87a8 8 0 0 1 8-8h174a8 8 0 0 1 8 8v72.8a8 8 0 0 1-8 8h-174a8 8 0 0 1-8-8z" stroke="#333" fill="#fff"/><use xlink:href="#k" transform="matrix(1,0,0,1,1472,874.8666666666667) translate(18.05000000000001 14.500000000000004)"/><use xlink:href="#l" transform="matrix(1,0,0,1,1472,874.8666666666667) translate(74 14.500000000000004)"/><use xlink:href="#m" transform="matrix(1,0,0,1,1472,874.8666666666667) translate(126.99999999999999 14.500000000000004)"/><use xlink:href="#n" transform="matrix(1,0,0,1,1472,874.8666666666667) translate(1.1250000000000142 36.099999999999994)"/><use xlink:href="#o" transform="matrix(1,0,0,1,1472,874.8666666666667) translate(100.97500000000001 36.099999999999994)"/><use xlink:href="#p" transform="matrix(1,0,0,1,1472,874.8666666666667) translate(61.57500000000001 57.69999999999999)"/><path d="M1455 988a8 8 0 0 1 8-8h184a8 8 0 0 1 8 8v85.2a8 8 0 0 1-8 8h-184a8 8 0 0 1-8-8z" stroke="#333" fill="#fff"/><g><use xlink:href="#ab" transform="matrix(1,0,0,1,1467,992) translate(11.125 21)"/><use xlink:href="#v" transform="matrix(1,0,0,1,1467,992) translate(70.025 21)"/><use xlink:href="#w" transform="matrix(1,0,0,1,1467,992) translate(44.074999999999996 42.6)"/><use xlink:href="#x" transform="matrix(1,0,0,1,1467,992) translate(117.975 42.6)"/><use xlink:href="#R" transform="matrix(1,0,0,1,1467,992) translate(15.549999999999997 64.2)"/><use xlink:href="#z" transform="matrix(1,0,0,1,1467,992) translate(119.5 64.2)"/></g><path d="M1240 770.03c0 27.63-22.4 50.03-50 50.03s-50-22.4-50-50.03c0-27.63 22.4-50.03 50-50.03s50 22.4 50 50.03z" stroke="#333" fill-opacity="0"/><g><use xlink:href="#E" transform="matrix(1,0,0,1,1145,725) translate(9.024999999999999 38.3)"/><use xlink:href="#F" transform="matrix(1,0,0,1,1145,725) translate(24.075 59.9)"/></g><path d="M1241 770.03h124.54a11.58 11.58 0 0 1 11.57 11.57" stroke="#333" fill="none"/><path d="M1241 770.53h-.52l.02-.5-.02-.5h.53z" stroke="#333" stroke-width=".05" fill="#333"/><path d="M1377.1 796.37l-4.62-14.27h9.27z" stroke="#333" fill="#333"/><path d="M1370.66 800.6a10.94 10.94 0 0 1 12.9 0l44.2 32.33a5.85 5.85 0 0 1 0 9.44l-44.2 32.33a10.94 10.94 0 0 1-12.9 0l-44.2-32.33a5.85 5.85 0 0 1 0-9.44z" stroke="#333" fill="#fff"/><g><use xlink:href="#ac" transform="matrix(1,0,0,1,1325,800.8758818753824) translate(9.599999999999994 40.6)"/></g><path d="M1548 837.26l1.36.32 1.3.54 1.18.73 1.06.9.9 1.06.73 1.2.54 1.3.32 1.34.1 1.35-1 .07-.1-1.27-.3-1.2-.46-1.15-.65-1.05-.8-.94-.95-.8-1.05-.65-1.15-.46-1.2-.3-1.25-.1h-63.17v-1h63.2zm-116.83.9v-1h29.3v1z" stroke="#282c33" stroke-width=".05" fill="#282c33"/><path d="M1431.18 838.15h-.56l.05-.5-.05-.5h.56z" fill="#282c33"/><path d="M1431.2 838.18h-.6l.04-.53-.05-.52h.6zm-.55-1l.04.47-.05.48h.5v-.95z" stroke="#282c33" stroke-width=".05" fill="#282c33"/><path d="M1555 860.8l-4.64-14.27h9.28z" fill="#282c33"/><path d="M1555 862.42l-5.32-16.4h10.64zm-3.95-15.4l3.95 12.16 3.95-12.15z" stroke="#282c33" stroke-width=".05" fill="#282c33"/><g><use xlink:href="#Z" transform="matrix(1,0,0,1,1460.475117668223,826.850142150546) translate(0.005000000000000782 14.4)"/></g><path d="M1276.85 839.37l-.07.03-1.54.95-1.37 1.17-1.17 1.37-.95 1.53-.7 1.67-.4 1.73-.15 19.1h-1l.15-19.22.46-1.9.76-1.83 1.03-1.67 1.26-1.5 1.5-1.26 1.66-1.03.53-.2zm46.2-1.22h-16.85v-1h16.86z" stroke="#282c33" stroke-width=".05" fill="#282c33"/><path d="M1323.56 837.65l.05.5h-.55v-1h.56z" fill="#282c33"/><path d="M1323.58 837.65l.05.53h-.6v-1.05h.6zm-.5-.47v.95h.5l-.05-.48.05-.47z" stroke="#282c33" stroke-width=".05" fill="#282c33"/><path d="M1270 881.7l-4.64-14.26h9.28z" fill="#282c33"/><path d="M1270 883.32l-5.32-16.38h10.64zm-3.95-15.38l3.95 12.14 3.95-12.14z" stroke="#282c33" stroke-width=".05" fill="#282c33"/><g><use xlink:href="#aa" transform="matrix(1,0,0,1,1276.8537635247803,826.850142150546) translate(0.005000000000000782 14.4)"/></g><path d="M1555 952.62v10.55" stroke="#333" fill="none"/><path d="M1555.5 952.63h-1v-.5h1z" stroke="#333" stroke-width=".05" fill="#333"/><path d="M1555 977.93l-4.64-14.26h9.28z" stroke="#333" fill="#333"/><path d="M1220 562.02a8 8 0 0 1 8-8h279.77a8 8 0 0 1 8 8v39.5a8 8 0 0 1-8 8H1228a8 8 0 0 1-8-8z" stroke="#000" stroke-opacity="0" fill="#fff" fill-opacity="0"/><g><use xlink:href="#ad" transform="matrix(1,0,0,1,1224.999999999999,559.0204634709152) translate(0 15.799999999999999)"/><use xlink:href="#ae" transform="matrix(1,0,0,1,1224.999999999999,559.0204634709152) translate(246.54999999999995 15.799999999999999)"/><use xlink:href="#af" transform="matrix(1,0,0,1,1224.999999999999,559.0204634709152) translate(0 37.4)"/><use xlink:href="#ag" transform="matrix(1,0,0,1,1224.999999999999,559.0204634709152) translate(5 37.4)"/></g><path d="M999.05 632.77H802a12 12 0 0 0-12 12v52.38" stroke="#333" fill="none"/><path d="M999.55 633.27h-.5v-1h.5z" stroke="#333" stroke-width=".05" fill="#333"/><path d="M790 711.92l-4.64-14.27h9.28z" stroke="#333" fill="#333"/><path d="M1200.95 632.77H1388a12 12 0 0 1 12 12v52.38" stroke="#333" fill="none"/><path d="M1200.96 633.27h-.5v-1h.5z" stroke="#333" stroke-width=".05" fill="#333"/><path d="M1400 711.92l-4.64-14.27h9.28z" stroke="#333" fill="#333"/><path d="M1311.66 907.27h131.5" stroke="#333" fill="none"/><path d="M1311.68 907.77h-.5l-.02-1h.52z" stroke="#333" stroke-width=".05" fill="#333"/><path d="M1457.93 907.27l-14.27 4.63v-9.27z" stroke="#333" fill="#333"/><path d="M1555 1082.15V1178a12 12 0 0 1-12 12h-355.12" stroke="#333" fill="none"/><path d="M1555.5 1082.16h-1v-.5h1z" stroke="#333" stroke-width=".05" fill="#333"/><path d="M1173.12 1190l14.26-4.64v9.28z" stroke="#333" fill="#333"/><defs><path fill="#fff" d="M249-183c0 48-29 72-75 77L221 0h-36l-43-103H65L45 0H11l48-248c83 2 190-17 190 65zm-34 3c0-55-74-39-127-41l-18 92c63-1 145 13 145-51" id="ah"/><path fill="#fff" d="M238-179c0 84-86 86-175 82L45 0H11l48-248c82 0 179-12 179 69zm-34 1c0-53-64-42-116-43l-19 98c63 0 135 9 135-55" id="ai"/><path fill="#fff" d="M125-24c46 0 70-25 89-51l25 16C214-24 183 4 123 4 8 4-5-146 60-208c32-50 158-61 191-5 5 7 9 14 11 22l-32 10c-9-28-33-43-69-43-74 0-108 51-108 125 0 46 24 75 72 75" id="aj"/><g id="a"><use transform="matrix(0.0685185185185185,0,0,0.0685185185185185,0,0)" xlink:href="#ah"/><use transform="matrix(0.0685185185185185,0,0,0.0685185185185185,17.746296296296293,0)" xlink:href="#ai"/><use transform="matrix(0.0685185185185185,0,0,0.0685185185185185,34.190740740740736,0)" xlink:href="#aj"/></g><path fill="#fff" d="M248-111c6-24 9-61-24-58-72 9-57 108-77 169h-31l26-142c3-37-50-30-64-10C52-115 50-51 37 0H6l36-190h30c-1 10-6 24-4 32 13-43 101-52 105 5 13-22 29-41 61-41 90 0 28 129 23 194h-31" id="ak"/><path fill="#fff" d="M111-194c62-3 86 47 72 106H45c-7 38 6 69 45 68 27-1 43-14 53-32l24 11C152-15 129 4 87 4 38 3 12-23 12-71c0-70 32-119 99-123zm44 81c14-66-71-72-95-28-4 8-8 17-11 28h106" id="al"/><path fill="#fff" d="M51-54c-9 22 5 41 31 30L79-1C43 14 10-4 19-52l22-115H19l5-23h22l19-43h21l-9 43h35l-4 23H73" id="am"/><path fill="#fff" d="M67-158c15-20 31-36 64-36 94 0 33 127 27 194h-32l25-140c3-38-53-32-70-12C52-117 51-51 37 0H6l51-261h31" id="an"/><path fill="#fff" d="M30-147c31-64 166-65 159 27C183-49 158 1 86 4 9 8 1-88 30-147zM88-20c53 0 68-48 68-100 0-31-11-51-44-50-52 1-68 46-68 97 0 32 13 53 44 53" id="ao"/><path fill="#fff" d="M133-28C103 26-5 8 13-77c13-62 24-115 90-117 29-1 46 15 56 35l19-102h32L160 0h-30zM45-64c-2 27 10 43 35 43 54-1 69-50 69-103 0-29-15-46-42-46-53-1-58 58-62 106" id="ap"/><g id="b"><use transform="matrix(0.0685185185185185,0,0,0.0685185185185185,0,0)" xlink:href="#ak"/><use transform="matrix(0.0685185185185185,0,0,0.0685185185185185,20.487037037037034,0)" xlink:href="#al"/><use transform="matrix(0.0685185185185185,0,0,0.0685185185185185,34.190740740740736,0)" xlink:href="#am"/><use transform="matrix(0.0685185185185185,0,0,0.0685185185185185,41.042592592592584,0)" xlink:href="#an"/><use transform="matrix(0.0685185185185185,0,0,0.0685185185185185,54.746296296296286,0)" xlink:href="#ao"/><use transform="matrix(0.0685185185185185,0,0,0.0685185185185185,68.44999999999999,0)" xlink:href="#ap"/></g><path fill="#fff" d="M50-231l6-30h32l-6 30H50zM6 0l37-190h31L37 0H6" id="aq"/><path fill="#fff" d="M67-158c22-48 132-52 116 29L158 0h-32l25-140c3-38-53-32-70-12C52-117 51-52 38 0H6l36-190h30" id="ar"/><g id="c"><use transform="matrix(0.0685185185185185,0,0,0.0685185185185185,0,0)" xlink:href="#aq"/><use transform="matrix(0.0685185185185185,0,0,0.0685185185185185,5.412962962962962,0)" xlink:href="#ar"/></g><path fill="#fff" d="M187 0l-14-72H61L19 0h-37l149-248h38L221 0h-34zm-19-99l-22-123L76-99h92" id="as"/><path fill="#fff" d="M44-68c0 29 11 47 38 47 30 0 42-19 51-41l28 9C148-21 126 4 82 4 31 4 10-29 12-85c3-77 74-140 146-93 12 8 15 23 18 40l-31 5c-1-22-13-36-36-36-52 0-65 49-65 101" id="at"/><g id="d"><use transform="matrix(0.0685185185185185,0,0,0.0685185185185185,0,0)" xlink:href="#as"/><use transform="matrix(0.0685185185185185,0,0,0.0685185185185185,16.444444444444443,0)" xlink:href="#at"/><use transform="matrix(0.0685185185185185,0,0,0.0685185185185185,28.77777777777777,0)" xlink:href="#am"/></g><path fill="#fff" d="M67-162c32-53 139-36 121 50C175-51 163 2 97 4 68 4 52-11 42-31 38 6 28 39 22 75H-9l50-265h29c-1 10 0 20-3 28zm89 36c0-26-10-43-35-43-54 0-67 50-69 103-1 29 14 45 42 46 53 0 62-58 62-106" id="au"/><path fill="#fff" d="M6 0l50-261h32L37 0H6" id="av"/><path fill="#fff" d="M165-48c-4 18 1 34 23 27l-3 20c-29 8-62 0-52-35h-2C116-14 99 4 63 4 30 4 8-16 8-49c0-68 71-67 138-67 10-26 0-56-31-54-26 1-42 9-47 31l-32-5c8-67 160-71 144 15-5 28-9 54-15 81zM42-50c3 52 80 24 89-6 7-12 7-24 11-38-47 1-103-4-100 44" id="aw"/><g id="e"><use transform="matrix(0.0685185185185185,0,0,0.0685185185185185,0,0)" xlink:href="#aq"/><use transform="matrix(0.0685185185185185,0,0,0.0685185185185185,5.412962962962962,0)" xlink:href="#ak"/><use transform="matrix(0.0685185185185185,0,0,0.0685185185185185,25.899999999999995,0)" xlink:href="#au"/><use transform="matrix(0.0685185185185185,0,0,0.0685185185185185,39.603703703703694,0)" xlink:href="#av"/><use transform="matrix(0.0685185185185185,0,0,0.0685185185185185,45.01666666666666,0)" xlink:href="#al"/><use transform="matrix(0.0685185185185185,0,0,0.0685185185185185,58.72037037037036,0)" xlink:href="#ak"/><use transform="matrix(0.0685185185185185,0,0,0.0685185185185185,79.2074074074074,0)" xlink:href="#al"/><use transform="matrix(0.0685185185185185,0,0,0.0685185185185185,92.9111111111111,0)" xlink:href="#ar"/><use transform="matrix(0.0685185185185185,0,0,0.0685185185185185,106.61481481481479,0)" xlink:href="#am"/><use transform="matrix(0.0685185185185185,0,0,0.0685185185185185,113.46666666666664,0)" xlink:href="#aw"/><use transform="matrix(0.0685185185185185,0,0,0.0685185185185185,127.17037037037034,0)" xlink:href="#am"/><use transform="matrix(0.0685185185185185,0,0,0.0685185185185185,134.02222222222218,0)" xlink:href="#aq"/><use transform="matrix(0.0685185185185185,0,0,0.0685185185185185,139.43518518518513,0)" xlink:href="#ao"/><use transform="matrix(0.0685185185185185,0,0,0.0685185185185185,153.13888888888883,0)" xlink:href="#ar"/></g><path fill="#333" d="M249-183c0 48-29 72-75 77L221 0h-36l-43-103H65L45 0H11l48-248c83 2 190-17 190 65zm-34 3c0-55-74-39-127-41l-18 92c63-1 145 13 145-51" id="ax"/><path fill="#333" d="M111-194c62-3 86 47 72 106H45c-7 38 6 69 45 68 27-1 43-14 53-32l24 11C152-15 129 4 87 4 38 3 12-23 12-71c0-70 32-119 99-123zm44 81c14-66-71-72-95-28-4 8-8 17-11 28h106" id="ay"/><path fill="#333" d="M133-28C103 26-5 8 13-77c13-62 24-115 90-117 29-1 46 15 56 35 2-12 6-24 8-34h31L144 75h-31zM45-64c-2 27 10 43 35 43 54-1 69-50 69-103 0-29-15-46-42-46-53-1-58 58-62 106" id="az"/><path fill="#333" d="M67 3c-93-2-31-127-26-193h32L48-50c-3 39 53 32 70 12 30-34 30-101 43-152h32L157 0h-30c1-10 6-24 4-33-14 20-29 37-64 36" id="aA"/><path fill="#333" d="M55-144c13 50 104 24 104 88C159 21 15 23 1-39l26-10c6 40 102 42 102-4-13-50-104-23-104-87 0-71 143-71 148-8l-29 4c-5-35-85-37-89 0" id="aB"/><path fill="#333" d="M51-54c-9 22 5 41 31 30L79-1C43 14 10-4 19-52l22-115H19l5-23h22l19-43h21l-9 43h35l-4 23H73" id="aC"/><path fill="#333" d="M238-179c0 84-86 86-175 82L45 0H11l48-248c82 0 179-12 179 69zm-34 1c0-53-64-42-116-43l-19 98c63 0 135 9 135-55" id="aD"/><path fill="#333" d="M66-151c12-25 30-51 66-40l-6 26C45-176 58-65 38 0H6l36-190h30" id="aE"/><path fill="#333" d="M30-147c31-64 166-65 159 27C183-49 158 1 86 4 9 8 1-88 30-147zM88-20c53 0 68-48 68-100 0-31-11-51-44-50-52 1-68 46-68 97 0 32 13 53 44 53" id="aF"/><path fill="#333" d="M44-68c0 29 11 47 38 47 30 0 42-19 51-41l28 9C148-21 126 4 82 4 31 4 10-29 12-85c3-77 74-140 146-93 12 8 15 23 18 40l-31 5c-1-22-13-36-36-36-52 0-65 49-65 101" id="aG"/><g id="f"><use transform="matrix(0.0685185185185185,0,0,0.0685185185185185,0,0)" xlink:href="#ax"/><use transform="matrix(0.0685185185185185,0,0,0.0685185185185185,17.746296296296293,0)" xlink:href="#ay"/><use transform="matrix(0.0685185185185185,0,0,0.0685185185185185,31.449999999999996,0)" xlink:href="#az"/><use transform="matrix(0.0685185185185185,0,0,0.0685185185185185,45.1537037037037,0)" xlink:href="#aA"/><use transform="matrix(0.0685185185185185,0,0,0.0685185185185185,58.8574074074074,0)" xlink:href="#ay"/><use transform="matrix(0.0685185185185185,0,0,0.0685185185185185,72.5611111111111,0)" xlink:href="#aB"/><use transform="matrix(0.0685185185185185,0,0,0.0685185185185185,84.89444444444443,0)" xlink:href="#aC"/><use transform="matrix(0.0685185185185185,0,0,0.0685185185185185,91.74629629629628,0)" xlink:href="#aD"/><use transform="matrix(0.0685185185185185,0,0,0.0685185185185185,108.19074074074072,0)" xlink:href="#aE"/><use transform="matrix(0.0685185185185185,0,0,0.0685185185185185,116.34444444444442,0)" xlink:href="#aF"/><use transform="matrix(0.0685185185185185,0,0,0.0685185185185185,130.04814814814813,0)" xlink:href="#aG"/><use transform="matrix(0.0685185185185185,0,0,0.0685185185185185,142.3814814814815,0)" xlink:href="#ay"/><use transform="matrix(0.0685185185185185,0,0,0.0685185185185185,156.08518518518517,0)" xlink:href="#aB"/><use transform="matrix(0.0685185185185185,0,0,0.0685185185185185,168.4185185185185,0)" xlink:href="#aB"/><use transform="matrix(0.0685185185185185,0,0,0.0685185185185185,180.75185185185185,0)" xlink:href="#aF"/><use transform="matrix(0.0685185185185185,0,0,0.0685185185185185,194.45555555555555,0)" xlink:href="#aE"/></g><path fill="#333" d="M96-169c-40 0-48 33-48 73s9 75 48 75c24 0 41-14 43-38l32 2c-6 37-31 61-74 61-59 0-76-41-82-99-10-93 101-131 147-64 4 7 5 14 7 22l-32 3c-4-21-16-35-41-35" id="aH"/><path fill="#333" d="M100-194c62-1 85 37 85 99 1 63-27 99-86 99S16-35 15-95c0-66 28-99 85-99zM99-20c44 1 53-31 53-75 0-43-8-75-51-75s-53 32-53 75 10 74 51 75" id="aI"/><path fill="#333" d="M117-194c89-4 53 116 60 194h-32v-121c0-31-8-49-39-48C34-167 62-67 57 0H25l-1-190h30c1 10-1 24 2 32 11-22 29-35 61-36" id="aJ"/><path fill="#333" d="M59-47c-2 24 18 29 38 22v24C64 9 27 4 27-40v-127H5v-23h24l9-43h21v43h35v23H59v120" id="aK"/><path fill="#333" d="M100-194c63 0 86 42 84 106H49c0 40 14 67 53 68 26 1 43-12 49-29l28 8c-11 28-37 45-77 45C44 4 14-33 15-96c1-61 26-98 85-98zm52 81c6-60-76-77-97-28-3 7-6 17-6 28h103" id="aL"/><path fill="#333" d="M141 0L90-78 38 0H4l68-98-65-92h35l48 74 47-74h35l-64 92 68 98h-35" id="aM"/><g id="g"><use transform="matrix(0.0685185185185185,0,0,0.0685185185185185,0,0)" xlink:href="#aH"/><use transform="matrix(0.0685185185185185,0,0,0.0685185185185185,12.33333333333333,0)" xlink:href="#aI"/><use transform="matrix(0.0685185185185185,0,0,0.0685185185185185,26.03703703703703,0)" xlink:href="#aJ"/><use transform="matrix(0.0685185185185185,0,0,0.0685185185185185,39.74074074074073,0)" xlink:href="#aK"/><use transform="matrix(0.0685185185185185,0,0,0.0685185185185185,46.59259259259258,0)" xlink:href="#aL"/><use transform="matrix(0.0685185185185185,0,0,0.0685185185185185,60.29629629629628,0)" xlink:href="#aM"/><use transform="matrix(0.0685185185185185,0,0,0.0685185185185185,72.62962962962962,0)" xlink:href="#aK"/></g><path fill="#333" d="M210-169c-67 3-38 105-44 169h-31v-121c0-29-5-50-35-48C34-165 62-65 56 0H25l-1-190h30c1 10-1 24 2 32 10-44 99-50 107 0 11-21 27-35 58-36 85-2 47 119 55 194h-31v-121c0-29-5-49-35-48" id="aN"/><path fill="#333" d="M141-36C126-15 110 5 73 4 37 3 15-17 15-53c-1-64 63-63 125-63 3-35-9-54-41-54-24 1-41 7-42 31l-33-3c5-37 33-52 76-52 45 0 72 20 72 64v82c-1 20 7 32 28 27v20c-31 9-61-2-59-35zM48-53c0 20 12 33 32 33 41-3 63-29 60-74-43 2-92-5-92 41" id="aO"/><path fill="#333" d="M177-190C167-65 218 103 67 71c-23-6-38-20-44-43l32-5c15 47 100 32 89-28v-30C133-14 115 1 83 1 29 1 15-40 15-95c0-56 16-97 71-98 29-1 48 16 59 35 1-10 0-23 2-32h30zM94-22c36 0 50-32 50-73 0-42-14-75-50-75-39 0-46 34-46 75s6 73 46 73" id="aP"/><path fill="#333" d="M114-163C36-179 61-72 57 0H25l-1-190h30c1 12-1 29 2 39 6-27 23-49 58-41v29" id="aQ"/><g id="h"><use transform="matrix(0.0685185185185185,0,0,0.0685185185185185,0,0)" xlink:href="#aN"/><use transform="matrix(0.0685185185185185,0,0,0.0685185185185185,20.487037037037034,0)" xlink:href="#aO"/><use transform="matrix(0.0685185185185185,0,0,0.0685185185185185,34.190740740740736,0)" xlink:href="#aJ"/><use transform="matrix(0.0685185185185185,0,0,0.0685185185185185,47.89444444444444,0)" xlink:href="#aO"/><use transform="matrix(0.0685185185185185,0,0,0.0685185185185185,61.598148148148134,0)" xlink:href="#aP"/><use transform="matrix(0.0685185185185185,0,0,0.0685185185185185,75.30185185185184,0)" xlink:href="#aL"/><use transform="matrix(0.0685185185185185,0,0,0.0685185185185185,89.00555555555552,0)" xlink:href="#aQ"/></g><path fill="#333" d="M233-177c-1 41-23 64-60 70L243 0h-38l-65-103H63V0H30v-248c88 3 205-21 203 71zM63-129c60-2 137 13 137-47 0-61-80-42-137-45v92" id="aR"/><path fill="#333" d="M145-31C134-9 116 4 85 4 32 4 16-35 15-94c0-59 17-99 70-100 32-1 48 14 60 33 0-11-1-24 2-32h30l-1 268h-32zM93-21c41 0 51-33 51-76s-8-73-50-73c-40 0-46 35-46 75s5 74 45 74" id="aS"/><path fill="#333" d="M84 4C-5 8 30-112 23-190h32v120c0 31 7 50 39 49 72-2 45-101 50-169h31l1 190h-30c-1-10 1-25-2-33-11 22-28 36-60 37" id="aT"/><path fill="#333" d="M135-143c-3-34-86-38-87 0 15 53 115 12 119 90S17 21 10-45l28-5c4 36 97 45 98 0-10-56-113-15-118-90-4-57 82-63 122-42 12 7 21 19 24 35" id="aU"/><g id="i"><use transform="matrix(0.05,0,0,0.05,0,0)" xlink:href="#aR"/><use transform="matrix(0.05,0,0,0.05,12.950000000000001,0)" xlink:href="#aL"/><use transform="matrix(0.05,0,0,0.05,22.950000000000003,0)" xlink:href="#aS"/><use transform="matrix(0.05,0,0,0.05,32.95,0)" xlink:href="#aT"/><use transform="matrix(0.05,0,0,0.05,42.95,0)" xlink:href="#aL"/><use transform="matrix(0.05,0,0,0.05,52.95,0)" xlink:href="#aU"/><use transform="matrix(0.05,0,0,0.05,61.95,0)" xlink:href="#aK"/></g><path fill="#333" d="M67-158c22-48 132-52 116 29L158 0h-32l25-140c3-38-53-32-70-12C52-117 51-52 38 0H6l36-190h30" id="aV"/><path fill="#333" d="M133-28C103 26-5 8 13-77c13-62 24-115 90-117 29-1 46 15 56 35l19-102h32L160 0h-30zM45-64c-2 27 10 43 35 43 54-1 69-50 69-103 0-29-15-46-42-46-53-1-58 58-62 106" id="aW"/><path fill="#333" d="M17-49c1-102 45-165 103-212h30C92-210 49-145 49-46 49 4 63 43 85 75H54C30 43 18 2 17-49" id="aX"/><path fill="#333" d="M248-111c6-24 9-61-24-58-72 9-57 108-77 169h-31l26-142c3-37-50-30-64-10C52-115 50-51 37 0H6l36-190h30c-1 10-6 24-4 32 13-43 101-52 105 5 13-22 29-41 61-41 90 0 28 129 23 194h-31" id="aY"/><path fill="#333" d="M165-48c-4 18 1 34 23 27l-3 20c-29 8-62 0-52-35h-2C116-14 99 4 63 4 30 4 8-16 8-49c0-68 71-67 138-67 10-26 0-56-31-54-26 1-42 9-47 31l-32-5c8-67 160-71 144 15-5 28-9 54-15 81zM42-50c3 52 80 24 89-6 7-12 7-24 11-38-47 1-103-4-100 44" id="aZ"/><path fill="#333" d="M103-194c29 0 47 14 56 36 2-11 5-23 8-32h30L160-5C157 61 82 97 21 62 9 55 4 45 1 30l28-7c7 42 83 31 92-3 4-16 9-38 13-55-13 20-29 36-62 36-40 0-60-25-60-64 0-71 23-131 91-131zm4 24c-53 0-58 54-61 104-2 27 10 44 36 44 49 0 65-50 67-102 1-29-15-46-42-46" id="ba"/><path fill="#333" d="M98-137C97-35 54 29-4 75h-31C23 23 67-41 67-140c0-50-15-89-37-121h31c24 32 36 73 37 124" id="bb"/><g id="j"><use transform="matrix(0.056172839506172814,0,0,0.056172839506172814,0,0)" xlink:href="#aB"/><use transform="matrix(0.056172839506172814,0,0,0.056172839506172814,10.111111111111107,0)" xlink:href="#ay"/><use transform="matrix(0.056172839506172814,0,0,0.056172839506172814,21.34567901234567,0)" xlink:href="#aV"/><use transform="matrix(0.056172839506172814,0,0,0.056172839506172814,32.58024691358023,0)" xlink:href="#aW"/><use transform="matrix(0.056172839506172814,0,0,0.056172839506172814,43.814814814814795,0)" xlink:href="#aX"/><use transform="matrix(0.056172839506172814,0,0,0.056172839506172814,50.49938271604936,0)" xlink:href="#aY"/><use transform="matrix(0.056172839506172814,0,0,0.056172839506172814,67.29506172839504,0)" xlink:href="#ay"/><use transform="matrix(0.056172839506172814,0,0,0.056172839506172814,78.5296296296296,0)" xlink:href="#aB"/><use transform="matrix(0.056172839506172814,0,0,0.056172839506172814,88.64074074074071,0)" xlink:href="#aB"/><use transform="matrix(0.056172839506172814,0,0,0.056172839506172814,98.75185185185182,0)" xlink:href="#aZ"/><use transform="matrix(0.056172839506172814,0,0,0.056172839506172814,109.98641975308638,0)" xlink:href="#ba"/><use transform="matrix(0.056172839506172814,0,0,0.056172839506172814,121.22098765432094,0)" xlink:href="#ay"/><use transform="matrix(0.056172839506172814,0,0,0.056172839506172814,132.4555555555555,0)" xlink:href="#bb"/></g><path fill="#333" d="M212-179c-10-28-35-45-73-45-59 0-87 40-87 99 0 60 29 101 89 101 43 0 62-24 78-52l27 14C228-24 195 4 139 4 59 4 22-46 18-125c-6-104 99-153 187-111 19 9 31 26 39 46" id="bc"/><path fill="#333" d="M106-169C34-169 62-67 57 0H25v-261h32l-1 103c12-21 28-36 61-36 89 0 53 116 60 194h-32v-121c2-32-8-49-39-48" id="bd"/><path fill="#333" d="M143 0L79-87 56-68V0H24v-261h32v163l83-92h37l-77 82L181 0h-38" id="be"/><g id="k"><use transform="matrix(0.04999999999999998,0,0,0.04999999999999998,0,0)" xlink:href="#bc"/><use transform="matrix(0.04999999999999998,0,0,0.04999999999999998,12.949999999999996,0)" xlink:href="#bd"/><use transform="matrix(0.04999999999999998,0,0,0.04999999999999998,22.949999999999992,0)" xlink:href="#aL"/><use transform="matrix(0.04999999999999998,0,0,0.04999999999999998,32.94999999999999,0)" xlink:href="#aH"/><use transform="matrix(0.04999999999999998,0,0,0.04999999999999998,41.94999999999999,0)" xlink:href="#be"/></g><g id="l"><use transform="matrix(0.04999999999999998,0,0,0.04999999999999998,0,0)" xlink:href="#aH"/><use transform="matrix(0.04999999999999998,0,0,0.04999999999999998,8.999999999999996,0)" xlink:href="#aO"/><use transform="matrix(0.04999999999999998,0,0,0.04999999999999998,18.999999999999993,0)" xlink:href="#aH"/><use transform="matrix(0.04999999999999998,0,0,0.04999999999999998,27.99999999999999,0)" xlink:href="#bd"/><use transform="matrix(0.04999999999999998,0,0,0.04999999999999998,37.999999999999986,0)" xlink:href="#aL"/></g><path fill="#333" d="M101-234c-31-9-42 10-38 44h38v23H63V0H32v-167H5v-23h27c-7-52 17-82 69-68v24" id="bf"/><g id="m"><use transform="matrix(0.04999999999999998,0,0,0.04999999999999998,0,0)" xlink:href="#bf"/><use transform="matrix(0.04999999999999998,0,0,0.04999999999999998,4.999999999999998,0)" xlink:href="#aI"/><use transform="matrix(0.04999999999999998,0,0,0.04999999999999998,14.999999999999995,0)" xlink:href="#aQ"/></g><path fill="#333" d="M115-194c55 1 70 41 70 98S169 2 115 4C84 4 66-9 55-30l1 105H24l-1-265h31l2 30c10-21 28-34 59-34zm-8 174c40 0 45-34 45-75s-6-73-45-74c-42 0-51 32-51 76 0 43 10 73 51 73" id="bg"/><path fill="#333" d="M87 75C49 33 22-17 22-94c0-76 28-126 65-167h31c-38 41-64 92-64 168S80 34 118 75H87" id="bh"/><path fill="#333" d="M33-261c38 41 65 92 65 168S71 34 33 75H2C39 34 66-17 66-93S39-220 2-261h31" id="bi"/><g id="n"><use transform="matrix(0.04999999999999998,0,0,0.04999999999999998,0,0)" xlink:href="#aQ"/><use transform="matrix(0.04999999999999998,0,0,0.04999999999999998,5.9499999999999975,0)" xlink:href="#aL"/><use transform="matrix(0.04999999999999998,0,0,0.04999999999999998,15.949999999999994,0)" xlink:href="#aU"/><use transform="matrix(0.04999999999999998,0,0,0.04999999999999998,24.94999999999999,0)" xlink:href="#bg"/><use transform="matrix(0.04999999999999998,0,0,0.04999999999999998,34.94999999999999,0)" xlink:href="#aI"/><use transform="matrix(0.04999999999999998,0,0,0.04999999999999998,44.94999999999999,0)" xlink:href="#aJ"/><use transform="matrix(0.04999999999999998,0,0,0.04999999999999998,54.94999999999999,0)" xlink:href="#aU"/><use transform="matrix(0.04999999999999998,0,0,0.04999999999999998,63.94999999999999,0)" xlink:href="#aL"/><use transform="matrix(0.04999999999999998,0,0,0.04999999999999998,73.94999999999999,0)" xlink:href="#bh"/><use transform="matrix(0.04999999999999998,0,0,0.04999999999999998,79.89999999999999,0)" xlink:href="#aU"/><use transform="matrix(0.04999999999999998,0,0,0.04999999999999998,88.89999999999999,0)" xlink:href="#bi"/></g><path fill="#333" d="M24-231v-30h32v30H24zM24 0v-190h32V0H24" id="bj"/><g id="o"><use transform="matrix(0.04999999999999998,0,0,0.04999999999999998,0,0)" xlink:href="#aN"/><use transform="matrix(0.04999999999999998,0,0,0.04999999999999998,14.949999999999994,0)" xlink:href="#aO"/><use transform="matrix(0.04999999999999998,0,0,0.04999999999999998,24.94999999999999,0)" xlink:href="#aK"/><use transform="matrix(0.04999999999999998,0,0,0.04999999999999998,29.94999999999999,0)" xlink:href="#bd"/><use transform="matrix(0.04999999999999998,0,0,0.04999999999999998,39.94999999999999,0)" xlink:href="#bj"/><use transform="matrix(0.04999999999999998,0,0,0.04999999999999998,43.899999999999984,0)" xlink:href="#aJ"/><use transform="matrix(0.04999999999999998,0,0,0.04999999999999998,53.89999999999998,0)" xlink:href="#aP"/></g><path fill="#333" d="M24 0v-261h32V0H24" id="bk"/><g id="p"><use transform="matrix(0.04999999999999998,0,0,0.04999999999999998,0,0)" xlink:href="#bf"/><use transform="matrix(0.04999999999999998,0,0,0.04999999999999998,4.999999999999998,0)" xlink:href="#bj"/><use transform="matrix(0.04999999999999998,0,0,0.04999999999999998,8.949999999999996,0)" xlink:href="#bk"/><use transform="matrix(0.04999999999999998,0,0,0.04999999999999998,12.899999999999995,0)" xlink:href="#aK"/><use transform="matrix(0.04999999999999998,0,0,0.04999999999999998,17.89999999999999,0)" xlink:href="#aL"/><use transform="matrix(0.04999999999999998,0,0,0.04999999999999998,27.89999999999999,0)" xlink:href="#aQ"/><use transform="matrix(0.04999999999999998,0,0,0.04999999999999998,33.84999999999999,0)" xlink:href="#aU"/></g><path fill="#333" d="M33 0v-248h34V0H33" id="bl"/><g id="q"><use transform="matrix(0.05,0,0,0.05,0,0)" xlink:href="#bl"/><use transform="matrix(0.05,0,0,0.05,5,0)" xlink:href="#aU"/></g><g id="r"><use transform="matrix(0.05,0,0,0.05,0,0)" xlink:href="#aQ"/><use transform="matrix(0.05,0,0,0.05,5.95,0)" xlink:href="#aL"/><use transform="matrix(0.05,0,0,0.05,15.949999999999998,0)" xlink:href="#aU"/><use transform="matrix(0.05,0,0,0.05,24.95,0)" xlink:href="#bg"/><use transform="matrix(0.05,0,0,0.05,34.95,0)" xlink:href="#aI"/><use transform="matrix(0.05,0,0,0.05,44.95,0)" xlink:href="#aJ"/><use transform="matrix(0.05,0,0,0.05,54.95,0)" xlink:href="#aU"/><use transform="matrix(0.05,0,0,0.05,63.95,0)" xlink:href="#aL"/><use transform="matrix(0.05,0,0,0.05,73.95,0)" xlink:href="#bh"/><use transform="matrix(0.05,0,0,0.05,79.9,0)" xlink:href="#aU"/><use transform="matrix(0.05,0,0,0.05,88.9,0)" xlink:href="#bi"/></g><g id="s"><use transform="matrix(0.05,0,0,0.05,0,0)" xlink:href="#bj"/><use transform="matrix(0.05,0,0,0.05,3.95,0)" xlink:href="#aJ"/></g><path fill="#333" d="M103-251c84 0 111 97 45 133-19 10-37 24-39 52H78c0-63 77-55 77-114 0-30-21-42-52-43-32 0-53 17-56 46l-32-2c7-45 34-72 88-72zM77 0v-35h34V0H77" id="bm"/><g id="t"><use transform="matrix(0.05,0,0,0.05,0,0)" xlink:href="#aH"/><use transform="matrix(0.05,0,0,0.05,9,0)" xlink:href="#aO"/><use transform="matrix(0.05,0,0,0.05,19,0)" xlink:href="#aH"/><use transform="matrix(0.05,0,0,0.05,28,0)" xlink:href="#bd"/><use transform="matrix(0.05,0,0,0.05,38,0)" xlink:href="#aL"/><use transform="matrix(0.05,0,0,0.05,48,0)" xlink:href="#bm"/></g><g id="u"><use transform="matrix(0.05,0,0,0.05,0,0)" xlink:href="#aR"/><use transform="matrix(0.05,0,0,0.05,12.950000000000001,0)" xlink:href="#aL"/><use transform="matrix(0.05,0,0,0.05,22.950000000000003,0)" xlink:href="#aK"/><use transform="matrix(0.05,0,0,0.05,27.950000000000003,0)" xlink:href="#aT"/><use transform="matrix(0.05,0,0,0.05,37.95,0)" xlink:href="#aQ"/><use transform="matrix(0.05,0,0,0.05,43.900000000000006,0)" xlink:href="#aJ"/></g><g id="v"><use transform="matrix(0.05,0,0,0.05,0,0)" xlink:href="#aQ"/><use transform="matrix(0.05,0,0,0.05,5.95,0)" xlink:href="#aL"/><use transform="matrix(0.05,0,0,0.05,15.949999999999998,0)" xlink:href="#aU"/><use transform="matrix(0.05,0,0,0.05,24.95,0)" xlink:href="#bg"/><use transform="matrix(0.05,0,0,0.05,34.95,0)" xlink:href="#aI"/><use transform="matrix(0.05,0,0,0.05,44.95,0)" xlink:href="#aJ"/><use transform="matrix(0.05,0,0,0.05,54.95,0)" xlink:href="#aU"/><use transform="matrix(0.05,0,0,0.05,63.95,0)" xlink:href="#aL"/><use transform="matrix(0.05,0,0,0.05,73.95,0)" xlink:href="#bh"/><use transform="matrix(0.05,0,0,0.05,79.9,0)" xlink:href="#aU"/><use transform="matrix(0.05,0,0,0.05,88.9,0)" xlink:href="#bi"/></g><path fill="#333" d="M206 0h-36l-40-164L89 0H53L-1-190h32L70-26l43-164h34l41 164 42-164h31" id="bn"/><path fill="#333" d="M85-194c31 0 48 13 60 33l-1-100h32l1 261h-30c-2-10 0-23-3-31C134-8 116 4 85 4 32 4 16-35 15-94c0-66 23-100 70-100zm9 24c-40 0-46 34-46 75 0 40 6 74 45 74 42 0 51-32 51-76 0-42-9-74-50-73" id="bo"/><g id="w"><use transform="matrix(0.05,0,0,0.05,0,0)" xlink:href="#bn"/><use transform="matrix(0.05,0,0,0.05,12.950000000000001,0)" xlink:href="#aQ"/><use transform="matrix(0.05,0,0,0.05,18.900000000000002,0)" xlink:href="#aO"/><use transform="matrix(0.05,0,0,0.05,28.900000000000002,0)" xlink:href="#bg"/><use transform="matrix(0.05,0,0,0.05,38.900000000000006,0)" xlink:href="#bg"/><use transform="matrix(0.05,0,0,0.05,48.900000000000006,0)" xlink:href="#aL"/><use transform="matrix(0.05,0,0,0.05,58.900000000000006,0)" xlink:href="#bo"/></g><g id="x"><use transform="matrix(0.05,0,0,0.05,0,0)" xlink:href="#bj"/><use transform="matrix(0.05,0,0,0.05,3.95,0)" xlink:href="#aJ"/></g><path fill="#333" d="M205 0l-28-72H64L36 0H1l101-248h38L239 0h-34zm-38-99l-47-123c-12 45-31 82-46 123h93" id="bp"/><path fill="#333" d="M240 0l2-218c-23 76-54 145-80 218h-23L58-218 59 0H30v-248h44l77 211c21-75 51-140 76-211h43V0h-30" id="bq"/><g id="y"><use transform="matrix(0.05,0,0,0.05,0,0)" xlink:href="#bp"/><use transform="matrix(0.05,0,0,0.05,12,0)" xlink:href="#aH"/><use transform="matrix(0.05,0,0,0.05,21,0)" xlink:href="#aK"/><use transform="matrix(0.05,0,0,0.05,26,0)" xlink:href="#bq"/><use transform="matrix(0.05,0,0,0.05,40.95,0)" xlink:href="#aL"/><use transform="matrix(0.05,0,0,0.05,50.95,0)" xlink:href="#aU"/><use transform="matrix(0.05,0,0,0.05,59.95,0)" xlink:href="#aU"/><use transform="matrix(0.05,0,0,0.05,68.95,0)" xlink:href="#aO"/><use transform="matrix(0.05,0,0,0.05,78.95,0)" xlink:href="#aP"/><use transform="matrix(0.05,0,0,0.05,88.95,0)" xlink:href="#aL"/></g><g id="z"><use transform="matrix(0.05,0,0,0.05,0,0)" xlink:href="#aH"/><use transform="matrix(0.05,0,0,0.05,9,0)" xlink:href="#bk"/><use transform="matrix(0.05,0,0,0.05,12.949999999999998,0)" xlink:href="#aO"/><use transform="matrix(0.05,0,0,0.05,22.95,0)" xlink:href="#aU"/><use transform="matrix(0.05,0,0,0.05,31.950000000000003,0)" xlink:href="#aU"/></g><path fill="#333" d="M50-231l6-30h32l-6 30H50zM6 0l37-190h31L37 0H6" id="br"/><path fill="#333" d="M89 0H52L20-190h33L74-25l89-165h34" id="bs"/><path fill="#333" d="M-28 44V31h207v13H-28" id="bt"/><path fill="#333" d="M76-167L44 0H12l33-167H18l4-23h27c3-47 25-81 82-69l-4 24c-35-8-44 15-46 45h37l-5 23H76" id="bu"/><path fill="#333" d="M67-158c15-20 31-36 64-36 94 0 33 127 27 194h-32l25-140c3-38-53-32-70-12C52-117 51-51 37 0H6l51-261h31" id="bv"/><path fill="#333" d="M14 0l8-38h34L48 0H14" id="bw"/><g id="A"><use transform="matrix(0.05,0,0,0.05,0,0)" xlink:href="#aE"/><use transform="matrix(0.05,0,0,0.05,5.95,0)" xlink:href="#ay"/><use transform="matrix(0.05,0,0,0.05,15.949999999999998,0)" xlink:href="#aG"/><use transform="matrix(0.05,0,0,0.05,24.95,0)" xlink:href="#ay"/><use transform="matrix(0.05,0,0,0.05,34.95,0)" xlink:href="#br"/><use transform="matrix(0.05,0,0,0.05,38.900000000000006,0)" xlink:href="#bs"/><use transform="matrix(0.05,0,0,0.05,47.900000000000006,0)" xlink:href="#ay"/><use transform="matrix(0.05,0,0,0.05,57.900000000000006,0)" xlink:href="#bt"/><use transform="matrix(0.05,0,0,0.05,67.9,0)" xlink:href="#bu"/><use transform="matrix(0.05,0,0,0.05,72.9,0)" xlink:href="#br"/><use transform="matrix(0.05,0,0,0.05,76.85000000000001,0)" xlink:href="#aE"/><use transform="matrix(0.05,0,0,0.05,82.80000000000001,0)" xlink:href="#aB"/><use transform="matrix(0.05,0,0,0.05,91.80000000000001,0)" xlink:href="#aC"/><use transform="matrix(0.05,0,0,0.05,96.80000000000001,0)" xlink:href="#bt"/><use transform="matrix(0.05,0,0,0.05,106.80000000000001,0)" xlink:href="#aY"/><use transform="matrix(0.05,0,0,0.05,121.75,0)" xlink:href="#aZ"/><use transform="matrix(0.05,0,0,0.05,131.75,0)" xlink:href="#aC"/><use transform="matrix(0.05,0,0,0.05,136.75,0)" xlink:href="#aG"/><use transform="matrix(0.05,0,0,0.05,145.75,0)" xlink:href="#bv"/><use transform="matrix(0.05,0,0,0.05,155.75,0)" xlink:href="#br"/><use transform="matrix(0.05,0,0,0.05,159.7,0)" xlink:href="#aV"/><use transform="matrix(0.05,0,0,0.05,169.7,0)" xlink:href="#ba"/><use transform="matrix(0.05,0,0,0.05,179.7,0)" xlink:href="#aX"/><use transform="matrix(0.05,0,0,0.05,185.64999999999998,0)" xlink:href="#bw"/><use transform="matrix(0.05,0,0,0.05,190.64999999999998,0)" xlink:href="#bw"/><use transform="matrix(0.05,0,0,0.05,195.64999999999998,0)" xlink:href="#bw"/><use transform="matrix(0.05,0,0,0.05,200.64999999999998,0)" xlink:href="#bb"/></g><g id="B"><use transform="matrix(0.05,0,0,0.05,0,0)" xlink:href="#aI"/><use transform="matrix(0.05,0,0,0.05,10,0)" xlink:href="#aQ"/></g><g id="C"><use transform="matrix(0.05,0,0,0.05,0,0)" xlink:href="#aE"/><use transform="matrix(0.05,0,0,0.05,5.95,0)" xlink:href="#ay"/><use transform="matrix(0.05,0,0,0.05,15.949999999999998,0)" xlink:href="#aG"/><use transform="matrix(0.05,0,0,0.05,24.95,0)" xlink:href="#ay"/><use transform="matrix(0.05,0,0,0.05,34.95,0)" xlink:href="#br"/><use transform="matrix(0.05,0,0,0.05,38.900000000000006,0)" xlink:href="#bs"/><use transform="matrix(0.05,0,0,0.05,47.900000000000006,0)" xlink:href="#ay"/><use transform="matrix(0.05,0,0,0.05,57.900000000000006,0)" xlink:href="#bt"/><use transform="matrix(0.05,0,0,0.05,67.9,0)" xlink:href="#bu"/><use transform="matrix(0.05,0,0,0.05,72.9,0)" xlink:href="#br"/><use transform="matrix(0.05,0,0,0.05,76.85000000000001,0)" xlink:href="#aE"/><use transform="matrix(0.05,0,0,0.05,82.80000000000001,0)" xlink:href="#aB"/><use transform="matrix(0.05,0,0,0.05,91.80000000000001,0)" xlink:href="#aC"/><use transform="matrix(0.05,0,0,0.05,96.80000000000001,0)" xlink:href="#bt"/><use transform="matrix(0.05,0,0,0.05,106.80000000000001,0)" xlink:href="#aV"/><use transform="matrix(0.05,0,0,0.05,116.80000000000001,0)" xlink:href="#bt"/><use transform="matrix(0.05,0,0,0.05,126.80000000000001,0)" xlink:href="#aY"/><use transform="matrix(0.05,0,0,0.05,141.75,0)" xlink:href="#aZ"/><use transform="matrix(0.05,0,0,0.05,151.75,0)" xlink:href="#aC"/><use transform="matrix(0.05,0,0,0.05,156.75,0)" xlink:href="#aG"/><use transform="matrix(0.05,0,0,0.05,165.75,0)" xlink:href="#bv"/><use transform="matrix(0.05,0,0,0.05,175.75,0)" xlink:href="#br"/><use transform="matrix(0.05,0,0,0.05,179.7,0)" xlink:href="#aV"/><use transform="matrix(0.05,0,0,0.05,189.7,0)" xlink:href="#ba"/><use transform="matrix(0.05,0,0,0.05,199.7,0)" xlink:href="#aX"/><use transform="matrix(0.05,0,0,0.05,205.64999999999998,0)" xlink:href="#bw"/><use transform="matrix(0.05,0,0,0.05,210.64999999999998,0)" xlink:href="#bw"/><use transform="matrix(0.05,0,0,0.05,215.64999999999998,0)" xlink:href="#bw"/><use transform="matrix(0.05,0,0,0.05,220.64999999999998,0)" xlink:href="#bb"/></g><path fill="#333" d="M6 0l50-261h32L37 0H6" id="bx"/><path fill="#333" d="M68-162c25-46 127-43 121 31C183-60 169 1 98 4 69 5 53-11 43-31L36 0H5l52-261h31zm88 36c2-27-9-43-34-43-55 0-70 51-70 103 0 29 15 45 43 46 52 0 58-58 61-106" id="by"/><g id="D"><use transform="matrix(0.05,0,0,0.05,0,0)" xlink:href="#aE"/><use transform="matrix(0.05,0,0,0.05,5.95,0)" xlink:href="#ay"/><use transform="matrix(0.05,0,0,0.05,15.949999999999998,0)" xlink:href="#aG"/><use transform="matrix(0.05,0,0,0.05,24.95,0)" xlink:href="#ay"/><use transform="matrix(0.05,0,0,0.05,34.95,0)" xlink:href="#br"/><use transform="matrix(0.05,0,0,0.05,38.900000000000006,0)" xlink:href="#bs"/><use transform="matrix(0.05,0,0,0.05,47.900000000000006,0)" xlink:href="#ay"/><use transform="matrix(0.05,0,0,0.05,57.900000000000006,0)" xlink:href="#bt"/><use transform="matrix(0.05,0,0,0.05,67.9,0)" xlink:href="#aZ"/><use transform="matrix(0.05,0,0,0.05,77.9,0)" xlink:href="#bx"/><use transform="matrix(0.05,0,0,0.05,81.85000000000001,0)" xlink:href="#bx"/><use transform="matrix(0.05,0,0,0.05,85.80000000000001,0)" xlink:href="#bt"/><use transform="matrix(0.05,0,0,0.05,95.80000000000001,0)" xlink:href="#by"/><use transform="matrix(0.05,0,0,0.05,105.80000000000001,0)" xlink:href="#ay"/><use transform="matrix(0.05,0,0,0.05,115.80000000000001,0)" xlink:href="#bu"/><use transform="matrix(0.05,0,0,0.05,120.80000000000001,0)" xlink:href="#aF"/><use transform="matrix(0.05,0,0,0.05,130.8,0)" xlink:href="#aE"/><use transform="matrix(0.05,0,0,0.05,136.75,0)" xlink:href="#ay"/><use transform="matrix(0.05,0,0,0.05,146.75,0)" xlink:href="#bt"/><use transform="matrix(0.05,0,0,0.05,156.75,0)" xlink:href="#aY"/><use transform="matrix(0.05,0,0,0.05,171.7,0)" xlink:href="#aZ"/><use transform="matrix(0.05,0,0,0.05,181.7,0)" xlink:href="#aC"/><use transform="matrix(0.05,0,0,0.05,186.7,0)" xlink:href="#aG"/><use transform="matrix(0.05,0,0,0.05,195.7,0)" xlink:href="#bv"/><use transform="matrix(0.05,0,0,0.05,205.69999999999996,0)" xlink:href="#br"/><use transform="matrix(0.05,0,0,0.05,209.64999999999998,0)" xlink:href="#aV"/><use transform="matrix(0.05,0,0,0.05,219.64999999999998,0)" xlink:href="#ba"/><use transform="matrix(0.05,0,0,0.05,229.64999999999998,0)" xlink:href="#aX"/><use transform="matrix(0.05,0,0,0.05,235.59999999999997,0)" xlink:href="#bw"/><use transform="matrix(0.05,0,0,0.05,240.59999999999997,0)" xlink:href="#bw"/><use transform="matrix(0.05,0,0,0.05,245.59999999999997,0)" xlink:href="#bw"/><use transform="matrix(0.05,0,0,0.05,250.59999999999997,0)" xlink:href="#bb"/></g><g id="E"><use transform="matrix(0.05,0,0,0.05,0,0)" xlink:href="#bq"/><use transform="matrix(0.05,0,0,0.05,14.950000000000001,0)" xlink:href="#aL"/><use transform="matrix(0.05,0,0,0.05,24.950000000000003,0)" xlink:href="#aU"/><use transform="matrix(0.05,0,0,0.05,33.95,0)" xlink:href="#aU"/><use transform="matrix(0.05,0,0,0.05,42.95,0)" xlink:href="#aO"/><use transform="matrix(0.05,0,0,0.05,52.95,0)" xlink:href="#aP"/><use transform="matrix(0.05,0,0,0.05,62.95,0)" xlink:href="#aL"/></g><g id="F"><use transform="matrix(0.05,0,0,0.05,0,0)" xlink:href="#bf"/><use transform="matrix(0.05,0,0,0.05,5,0)" xlink:href="#bj"/><use transform="matrix(0.05,0,0,0.05,8.95,0)" xlink:href="#bk"/><use transform="matrix(0.05,0,0,0.05,12.899999999999999,0)" xlink:href="#aK"/><use transform="matrix(0.05,0,0,0.05,17.9,0)" xlink:href="#aL"/><use transform="matrix(0.05,0,0,0.05,27.899999999999995,0)" xlink:href="#aQ"/><use transform="matrix(0.05,0,0,0.05,33.85,0)" xlink:href="#aU"/></g><path fill="#333" d="M266 0h-40l-56-210L115 0H75L2-248h35L96-30l15-64 43-154h32l59 218 59-218h35" id="bz"/><g id="G"><use transform="matrix(0.05,0,0,0.05,0,0)" xlink:href="#bz"/><use transform="matrix(0.05,0,0,0.05,16.3,0)" xlink:href="#aO"/><use transform="matrix(0.05,0,0,0.05,26.3,0)" xlink:href="#bj"/><use transform="matrix(0.05,0,0,0.05,30.25,0)" xlink:href="#aK"/></g><path fill="#333" d="M160-131c35 5 61 23 61 61C221 17 115-2 30 0v-248c76 3 177-17 177 60 0 33-19 50-47 57zm-97-11c50-1 110 9 110-42 0-47-63-36-110-37v79zm0 115c55-2 124 14 124-45 0-56-70-42-124-44v89" id="bA"/><g id="H"><use transform="matrix(0.05,0,0,0.05,0,0)" xlink:href="#bA"/><use transform="matrix(0.05,0,0,0.05,12,0)" xlink:href="#aT"/><use transform="matrix(0.05,0,0,0.05,22,0)" xlink:href="#bj"/><use transform="matrix(0.05,0,0,0.05,25.950000000000003,0)" xlink:href="#bk"/><use transform="matrix(0.05,0,0,0.05,29.899999999999995,0)" xlink:href="#bo"/></g><g id="I"><use transform="matrix(0.05,0,0,0.05,0,0)" xlink:href="#aR"/><use transform="matrix(0.05,0,0,0.05,12.950000000000001,0)" xlink:href="#aL"/><use transform="matrix(0.05,0,0,0.05,22.950000000000003,0)" xlink:href="#aU"/><use transform="matrix(0.05,0,0,0.05,31.950000000000003,0)" xlink:href="#bg"/><use transform="matrix(0.05,0,0,0.05,41.95,0)" xlink:href="#aI"/><use transform="matrix(0.05,0,0,0.05,51.95,0)" xlink:href="#aJ"/><use transform="matrix(0.05,0,0,0.05,61.95,0)" xlink:href="#aU"/><use transform="matrix(0.05,0,0,0.05,70.95,0)" xlink:href="#aL"/></g><g id="J"><use transform="matrix(0.05,0,0,0.05,0,0)" xlink:href="#aH"/><use transform="matrix(0.05,0,0,0.05,9,0)" xlink:href="#bk"/><use transform="matrix(0.05,0,0,0.05,12.949999999999998,0)" xlink:href="#aO"/><use transform="matrix(0.05,0,0,0.05,22.95,0)" xlink:href="#aU"/><use transform="matrix(0.05,0,0,0.05,31.950000000000003,0)" xlink:href="#aU"/></g><path fill="#333" d="M115-194c53 0 69 39 70 98 0 66-23 100-70 100C84 3 66-7 56-30L54 0H23l1-261h32v101c10-23 28-34 59-34zm-8 174c40 0 45-34 45-75 0-40-5-75-45-74-42 0-51 32-51 76 0 43 10 73 51 73" id="bB"/><path fill="#333" d="M24-231v-30h32v30H24zM-9 49c24 4 33-6 33-30v-209h32V24c2 40-23 58-65 49V49" id="bC"/><g id="K"><use transform="matrix(0.05,0,0,0.05,0,0)" xlink:href="#aI"/><use transform="matrix(0.05,0,0,0.05,10,0)" xlink:href="#bB"/><use transform="matrix(0.05,0,0,0.05,20,0)" xlink:href="#bC"/><use transform="matrix(0.05,0,0,0.05,23.95,0)" xlink:href="#aL"/><use transform="matrix(0.05,0,0,0.05,33.95,0)" xlink:href="#aH"/><use transform="matrix(0.05,0,0,0.05,42.95,0)" xlink:href="#aK"/></g><g id="L"><use transform="matrix(0.05,0,0,0.05,0,0)" xlink:href="#bB"/><use transform="matrix(0.05,0,0,0.05,10,0)" xlink:href="#aO"/><use transform="matrix(0.05,0,0,0.05,20,0)" xlink:href="#aU"/><use transform="matrix(0.05,0,0,0.05,29,0)" xlink:href="#aL"/><use transform="matrix(0.05,0,0,0.05,39,0)" xlink:href="#bo"/></g><g id="M"><use transform="matrix(0.05,0,0,0.05,0,0)" xlink:href="#aI"/><use transform="matrix(0.05,0,0,0.05,10,0)" xlink:href="#aJ"/></g><g id="N"><use transform="matrix(0.05,0,0,0.05,0,0)" xlink:href="#aO"/><use transform="matrix(0.05,0,0,0.05,10,0)" xlink:href="#aJ"/></g><g id="O"><use transform="matrix(0.05,0,0,0.05,0,0)" xlink:href="#bj"/><use transform="matrix(0.05,0,0,0.05,3.95,0)" xlink:href="#aJ"/><use transform="matrix(0.05,0,0,0.05,13.949999999999998,0)" xlink:href="#aU"/><use transform="matrix(0.05,0,0,0.05,22.95,0)" xlink:href="#aK"/><use transform="matrix(0.05,0,0,0.05,27.950000000000003,0)" xlink:href="#aO"/><use transform="matrix(0.05,0,0,0.05,37.95,0)" xlink:href="#aJ"/><use transform="matrix(0.05,0,0,0.05,47.95,0)" xlink:href="#aH"/><use transform="matrix(0.05,0,0,0.05,56.95,0)" xlink:href="#aL"/></g><g id="P"><use transform="matrix(0.05,0,0,0.05,0,0)" xlink:href="#aI"/><use transform="matrix(0.05,0,0,0.05,10,0)" xlink:href="#bf"/></g><g id="Q"><use transform="matrix(0.05,0,0,0.05,0,0)" xlink:href="#aK"/><use transform="matrix(0.05,0,0,0.05,5,0)" xlink:href="#bd"/><use transform="matrix(0.05,0,0,0.05,15,0)" xlink:href="#aL"/></g><g id="R"><use transform="matrix(0.05,0,0,0.05,0,0)" xlink:href="#bp"/><use transform="matrix(0.05,0,0,0.05,12,0)" xlink:href="#aH"/><use transform="matrix(0.05,0,0,0.05,21,0)" xlink:href="#aK"/><use transform="matrix(0.05,0,0,0.05,26,0)" xlink:href="#bq"/><use transform="matrix(0.05,0,0,0.05,40.95,0)" xlink:href="#aL"/><use transform="matrix(0.05,0,0,0.05,50.95,0)" xlink:href="#aU"/><use transform="matrix(0.05,0,0,0.05,59.95,0)" xlink:href="#aU"/><use transform="matrix(0.05,0,0,0.05,68.95,0)" xlink:href="#aO"/><use transform="matrix(0.05,0,0,0.05,78.95,0)" xlink:href="#aP"/><use transform="matrix(0.05,0,0,0.05,88.95,0)" xlink:href="#aL"/></g><g id="S"><use transform="matrix(0.05,0,0,0.05,0,0)" xlink:href="#bp"/><use transform="matrix(0.05,0,0,0.05,12,0)" xlink:href="#aH"/><use transform="matrix(0.05,0,0,0.05,21,0)" xlink:href="#aK"/><use transform="matrix(0.05,0,0,0.05,26,0)" xlink:href="#bq"/><use transform="matrix(0.05,0,0,0.05,40.95,0)" xlink:href="#aL"/><use transform="matrix(0.05,0,0,0.05,50.95,0)" xlink:href="#aU"/><use transform="matrix(0.05,0,0,0.05,59.95,0)" xlink:href="#aU"/><use transform="matrix(0.05,0,0,0.05,68.95,0)" xlink:href="#aO"/><use transform="matrix(0.05,0,0,0.05,78.95,0)" xlink:href="#aP"/><use transform="matrix(0.05,0,0,0.05,88.95,0)" xlink:href="#aL"/></g><path fill="#333" d="M0 4l72-265h28L28 4H0" id="bD"/><use transform="matrix(0.05,0,0,0.05,0,0)" xlink:href="#bD" id="T"/><path fill="#333" d="M30 0v-248h33v221h125V0H30" id="bE"/><path fill="#333" d="M26 75v-336h71v23H56V52h41v23H26" id="bF"/><path fill="#333" d="M3 75V52h41v-290H3v-23h71V75H3" id="bG"/><g id="U"><use transform="matrix(0.05,0,0,0.05,0,0)" xlink:href="#bE"/><use transform="matrix(0.05,0,0,0.05,10,0)" xlink:href="#bj"/><use transform="matrix(0.05,0,0,0.05,13.949999999999998,0)" xlink:href="#aU"/><use transform="matrix(0.05,0,0,0.05,22.95,0)" xlink:href="#aK"/><use transform="matrix(0.05,0,0,0.05,27.950000000000003,0)" xlink:href="#bF"/><use transform="matrix(0.05,0,0,0.05,32.95,0)" xlink:href="#bp"/><use transform="matrix(0.05,0,0,0.05,44.95,0)" xlink:href="#aH"/><use transform="matrix(0.05,0,0,0.05,53.95,0)" xlink:href="#aK"/><use transform="matrix(0.05,0,0,0.05,58.95,0)" xlink:href="#bq"/><use transform="matrix(0.05,0,0,0.05,73.9,0)" xlink:href="#aL"/><use transform="matrix(0.05,0,0,0.05,83.9,0)" xlink:href="#aU"/><use transform="matrix(0.05,0,0,0.05,92.9,0)" xlink:href="#aU"/><use transform="matrix(0.05,0,0,0.05,101.9,0)" xlink:href="#aO"/><use transform="matrix(0.05,0,0,0.05,111.9,0)" xlink:href="#aP"/><use transform="matrix(0.05,0,0,0.05,121.9,0)" xlink:href="#aL"/><use transform="matrix(0.05,0,0,0.05,131.9,0)" xlink:href="#bG"/></g><g id="V"><use transform="matrix(0.05,0,0,0.05,0,0)" xlink:href="#aR"/><use transform="matrix(0.05,0,0,0.05,12.950000000000001,0)" xlink:href="#aL"/><use transform="matrix(0.05,0,0,0.05,22.950000000000003,0)" xlink:href="#aU"/><use transform="matrix(0.05,0,0,0.05,31.950000000000003,0)" xlink:href="#bg"/><use transform="matrix(0.05,0,0,0.05,41.95,0)" xlink:href="#aI"/><use transform="matrix(0.05,0,0,0.05,51.95,0)" xlink:href="#aJ"/><use transform="matrix(0.05,0,0,0.05,61.95,0)" xlink:href="#aU"/><use transform="matrix(0.05,0,0,0.05,70.95,0)" xlink:href="#aL"/></g><path fill="#333" d="M127-220V0H93v-220H8v-28h204v28h-85" id="bH"/><g id="W"><use transform="matrix(0.05,0,0,0.05,0,0)" xlink:href="#bH"/><use transform="matrix(0.05,0,0,0.05,10.3,0)" xlink:href="#bj"/><use transform="matrix(0.05,0,0,0.05,14.25,0)" xlink:href="#aN"/><use transform="matrix(0.05,0,0,0.05,29.200000000000003,0)" xlink:href="#aL"/><use transform="matrix(0.05,0,0,0.05,39.2,0)" xlink:href="#aI"/><use transform="matrix(0.05,0,0,0.05,49.2,0)" xlink:href="#aT"/><use transform="matrix(0.05,0,0,0.05,59.2,0)" xlink:href="#aK"/></g><g id="X"><use transform="matrix(0.05,0,0,0.05,0,0)" xlink:href="#bj"/><use transform="matrix(0.05,0,0,0.05,3.95,0)" xlink:href="#aU"/></g><path fill="#333" d="M108 0H70L1-190h34L89-25l56-165h34" id="bI"/><g id="Y"><use transform="matrix(0.05,0,0,0.05,0,0)" xlink:href="#aI"/><use transform="matrix(0.05,0,0,0.05,10,0)" xlink:href="#bI"/><use transform="matrix(0.05,0,0,0.05,19,0)" xlink:href="#aL"/><use transform="matrix(0.05,0,0,0.05,29,0)" xlink:href="#aQ"/><use transform="matrix(0.05,0,0,0.05,34.95,0)" xlink:href="#bm"/></g><path fill="#333" d="M190 0L58-211 59 0H30v-248h39L202-35l-2-213h31V0h-41" id="bJ"/><g id="Z"><use transform="matrix(0.05,0,0,0.05,0,0)" xlink:href="#bJ"/><use transform="matrix(0.05,0,0,0.05,12.950000000000001,0)" xlink:href="#aI"/></g><path fill="#333" d="M137-103V0h-34v-103L8-248h37l75 118 75-118h37" id="bK"/><g id="aa"><use transform="matrix(0.05,0,0,0.05,0,0)" xlink:href="#bK"/><use transform="matrix(0.05,0,0,0.05,10.35,0)" xlink:href="#aL"/><use transform="matrix(0.05,0,0,0.05,20.35,0)" xlink:href="#aU"/></g><g id="ab"><use transform="matrix(0.05,0,0,0.05,0,0)" xlink:href="#aR"/><use transform="matrix(0.05,0,0,0.05,12.950000000000001,0)" xlink:href="#aL"/><use transform="matrix(0.05,0,0,0.05,22.950000000000003,0)" xlink:href="#aK"/><use transform="matrix(0.05,0,0,0.05,27.950000000000003,0)" xlink:href="#aT"/><use transform="matrix(0.05,0,0,0.05,37.95,0)" xlink:href="#aQ"/><use transform="matrix(0.05,0,0,0.05,43.900000000000006,0)" xlink:href="#aJ"/></g><path fill="#333" d="M-5 72V49h209v23H-5" id="bL"/><g id="ac"><use transform="matrix(0.05,0,0,0.05,0,0)" xlink:href="#bn"/><use transform="matrix(0.05,0,0,0.05,12.950000000000001,0)" xlink:href="#aO"/><use transform="matrix(0.05,0,0,0.05,22.950000000000003,0)" xlink:href="#bj"/><use transform="matrix(0.05,0,0,0.05,26.900000000000002,0)" xlink:href="#aK"/><use transform="matrix(0.05,0,0,0.05,31.900000000000002,0)" xlink:href="#bL"/><use transform="matrix(0.05,0,0,0.05,41.900000000000006,0)" xlink:href="#aK"/><use transform="matrix(0.05,0,0,0.05,46.900000000000006,0)" xlink:href="#bj"/><use transform="matrix(0.05,0,0,0.05,50.85000000000001,0)" xlink:href="#aN"/><use transform="matrix(0.05,0,0,0.05,65.80000000000001,0)" xlink:href="#aL"/><use transform="matrix(0.05,0,0,0.05,75.80000000000001,0)" xlink:href="#bm"/></g><g id="ad"><use transform="matrix(0.05,0,0,0.05,0,0)" xlink:href="#aE"/><use transform="matrix(0.05,0,0,0.05,5.95,0)" xlink:href="#ay"/><use transform="matrix(0.05,0,0,0.05,15.949999999999998,0)" xlink:href="#aG"/><use transform="matrix(0.05,0,0,0.05,24.95,0)" xlink:href="#ay"/><use transform="matrix(0.05,0,0,0.05,34.95,0)" xlink:href="#br"/><use transform="matrix(0.05,0,0,0.05,38.900000000000006,0)" xlink:href="#bs"/><use transform="matrix(0.05,0,0,0.05,47.900000000000006,0)" xlink:href="#ay"/><use transform="matrix(0.05,0,0,0.05,57.900000000000006,0)" xlink:href="#bt"/><use transform="matrix(0.05,0,0,0.05,67.9,0)" xlink:href="#aZ"/><use transform="matrix(0.05,0,0,0.05,77.9,0)" xlink:href="#bx"/><use transform="matrix(0.05,0,0,0.05,81.85000000000001,0)" xlink:href="#bx"/><use transform="matrix(0.05,0,0,0.05,85.80000000000001,0)" xlink:href="#bt"/><use transform="matrix(0.05,0,0,0.05,95.80000000000001,0)" xlink:href="#aZ"/><use transform="matrix(0.05,0,0,0.05,105.80000000000001,0)" xlink:href="#bu"/><use transform="matrix(0.05,0,0,0.05,110.80000000000001,0)" xlink:href="#aC"/><use transform="matrix(0.05,0,0,0.05,115.80000000000001,0)" xlink:href="#ay"/><use transform="matrix(0.05,0,0,0.05,125.80000000000001,0)" xlink:href="#aE"/><use transform="matrix(0.05,0,0,0.05,131.75,0)" xlink:href="#bt"/><use transform="matrix(0.05,0,0,0.05,141.75,0)" xlink:href="#aY"/><use transform="matrix(0.05,0,0,0.05,156.7,0)" xlink:href="#aZ"/><use transform="matrix(0.05,0,0,0.05,166.7,0)" xlink:href="#aC"/><use transform="matrix(0.05,0,0,0.05,171.7,0)" xlink:href="#aG"/><use transform="matrix(0.05,0,0,0.05,180.7,0)" xlink:href="#bv"/><use transform="matrix(0.05,0,0,0.05,190.7,0)" xlink:href="#br"/><use transform="matrix(0.05,0,0,0.05,194.64999999999998,0)" xlink:href="#aV"/><use transform="matrix(0.05,0,0,0.05,204.64999999999998,0)" xlink:href="#ba"/><use transform="matrix(0.05,0,0,0.05,214.64999999999998,0)" xlink:href="#aX"/><use transform="matrix(0.05,0,0,0.05,220.59999999999997,0)" xlink:href="#bw"/><use transform="matrix(0.05,0,0,0.05,225.59999999999997,0)" xlink:href="#bw"/><use transform="matrix(0.05,0,0,0.05,230.59999999999997,0)" xlink:href="#bw"/><use transform="matrix(0.05,0,0,0.05,235.59999999999997,0)" xlink:href="#bb"/></g><g id="ae"><use transform="matrix(0.05,0,0,0.05,0,0)" xlink:href="#aF"/><use transform="matrix(0.05,0,0,0.05,10,0)" xlink:href="#aE"/></g><g id="ag"><use transform="matrix(0.05,0,0,0.05,0,0)" xlink:href="#aE"/><use transform="matrix(0.05,0,0,0.05,5.95,0)" xlink:href="#ay"/><use transform="matrix(0.05,0,0,0.05,15.949999999999998,0)" xlink:href="#aG"/><use transform="matrix(0.05,0,0,0.05,24.95,0)" xlink:href="#ay"/><use transform="matrix(0.05,0,0,0.05,34.95,0)" xlink:href="#br"/><use transform="matrix(0.05,0,0,0.05,38.900000000000006,0)" xlink:href="#bs"/><use transform="matrix(0.05,0,0,0.05,47.900000000000006,0)" xlink:href="#ay"/><use transform="matrix(0.05,0,0,0.05,57.900000000000006,0)" xlink:href="#bt"/><use transform="matrix(0.05,0,0,0.05,67.9,0)" xlink:href="#aZ"/><use transform="matrix(0.05,0,0,0.05,77.9,0)" xlink:href="#bx"/><use transform="matrix(0.05,0,0,0.05,81.85000000000001,0)" xlink:href="#bx"/><use transform="matrix(0.05,0,0,0.05,85.80000000000001,0)" xlink:href="#bt"/><use transform="matrix(0.05,0,0,0.05,95.80000000000001,0)" xlink:href="#aY"/><use transform="matrix(0.05,0,0,0.05,110.75,0)" xlink:href="#aZ"/><use transform="matrix(0.05,0,0,0.05,120.75,0)" xlink:href="#aC"/><use transform="matrix(0.05,0,0,0.05,125.75,0)" xlink:href="#aG"/><use transform="matrix(0.05,0,0,0.05,134.75,0)" xlink:href="#bv"/><use transform="matrix(0.05,0,0,0.05,144.75,0)" xlink:href="#br"/><use transform="matrix(0.05,0,0,0.05,148.7,0)" xlink:href="#aV"/><use transform="matrix(0.05,0,0,0.05,158.7,0)" xlink:href="#ba"/><use transform="matrix(0.05,0,0,0.05,168.7,0)" xlink:href="#aX"/><use transform="matrix(0.05,0,0,0.05,174.64999999999998,0)" xlink:href="#bw"/><use transform="matrix(0.05,0,0,0.05,179.64999999999998,0)" xlink:href="#bw"/><use transform="matrix(0.05,0,0,0.05,184.64999999999998,0)" xlink:href="#bw"/><use transform="matrix(0.05,0,0,0.05,189.64999999999998,0)" xlink:href="#bb"/></g></defs></g></svg>